<svg width="480" height="360" viewBox="0 0 480 360" fill="none" xmlns="http://www.w3.org/2000/svg" role="img" aria-label="Security consultancy">
  <defs>
    <linearGradient id="m5" x1="0" y1="0" x2="1" y2="1"><stop stop-color="#14857F"/><stop offset="1" stop-color="#0C5C5B"/></linearGradient>
  </defs>
  <rect width="480" height="360" rx="24" fill="#EAF4F3"/>
  <circle cx="240" cy="180" r="128" fill="#DBEDEB"/>
  <circle cx="240" cy="180" r="92" fill="none" stroke="#BFE0DC" stroke-width="2" stroke-dasharray="4 10"/>

  <!-- shield -->
  <path d="M240 70 L330 104 V196 C330 252 290 286 240 304 C190 286 150 252 150 196 V104 Z" fill="url(#m5)"/>
  <path d="M240 70 L330 104 V196 C330 252 290 286 240 304 C190 286 150 252 150 196 V104 Z" fill="none" stroke="#5BD8CB" stroke-width="3" opacity="0.4"/>

  <!-- lock -->
  <path d="M218 168 v-14 a22 22 0 0 1 44 0 v14" fill="none" stroke="#EAF4F3" stroke-width="10" stroke-linecap="round"/>
  <rect x="200" y="166" width="80" height="70" rx="12" fill="#072B2A"/>
  <circle cx="240" cy="194" r="11" fill="#5BD8CB"/>
  <rect x="235" y="200" width="10" height="22" rx="5" fill="#5BD8CB"/>
</svg>
