<svg width="480" height="360" viewBox="0 0 480 360" fill="none" xmlns="http://www.w3.org/2000/svg" role="img" aria-label="IT hardware: monitor, laptop and server">
  <defs>
    <linearGradient id="m" x1="0" y1="0" x2="1" y2="1"><stop stop-color="#14857F"/><stop offset="1" stop-color="#0C5C5B"/></linearGradient>
  </defs>
  <rect width="480" height="360" rx="24" fill="#EAF4F3"/>
  <circle cx="380" cy="64" r="120" fill="#DBEDEB"/>
  <circle cx="380" cy="64" r="78" fill="#CFE7E4"/>

  <!-- monitor -->
  <rect x="108" y="96" width="200" height="128" rx="12" fill="#0E2120"/>
  <rect x="122" y="110" width="172" height="100" rx="6" fill="url(#m)"/>
  <rect x="138" y="128" width="74" height="10" rx="5" fill="#5BD8CB"/>
  <rect x="138" y="150" width="120" height="8" rx="4" fill="#9CD9D3"/>
  <rect x="138" y="168" width="96" height="8" rx="4" fill="#9CD9D3"/>
  <rect x="194" y="224" width="28" height="22" fill="#0E2120"/>
  <rect x="160" y="246" width="96" height="12" rx="6" fill="#0E2120"/>

  <!-- laptop -->
  <rect x="262" y="186" width="118" height="74" rx="8" fill="#0C5C5B"/>
  <rect x="276" y="198" width="90" height="50" rx="4" fill="#34C7B8"/>
  <path d="M250 260 H392 l10 14 H240 Z" fill="#0E2120"/>

  <!-- server tower -->
  <rect x="70" y="176" width="62" height="92" rx="10" fill="#14857F"/>
  <rect x="84" y="190" width="34" height="9" rx="4.5" fill="#072B2A"/>
  <rect x="84" y="206" width="34" height="9" rx="4.5" fill="#072B2A"/>
  <circle cx="89" cy="232" r="4" fill="#5BD8CB"/>
  <circle cx="103" cy="232" r="4" fill="#9CD9D3"/>
</svg>
