<svg width="480" height="360" viewBox="0 0 480 360" fill="none" xmlns="http://www.w3.org/2000/svg" role="img" aria-label="Industry-specific IT solutions">
  <defs>
    <linearGradient id="ind" x1="0" y1="0" x2="1" y2="1"><stop stop-color="#14857F"/><stop offset="1" stop-color="#0C5C5B"/></linearGradient>
  </defs>
  <rect width="480" height="360" rx="24" fill="#EAF4F3"/>
  <circle cx="372" cy="84" r="92" fill="#DBEDEB"/>

  <!-- institution building -->
  <g>
    <!-- pediment -->
    <path d="M150 118 L330 118 L240 72 Z" fill="url(#ind)"/>
    <rect x="150" y="118" width="180" height="14" rx="3" fill="#0E2120"/>
    <!-- columns -->
    <rect x="166" y="140" width="20" height="120" rx="3" fill="url(#ind)"/>
    <rect x="206" y="140" width="20" height="120" rx="3" fill="url(#ind)"/>
    <rect x="254" y="140" width="20" height="120" rx="3" fill="url(#ind)"/>
    <rect x="294" y="140" width="20" height="120" rx="3" fill="url(#ind)"/>
    <!-- base steps -->
    <rect x="150" y="266" width="180" height="14" rx="3" fill="#0E2120"/>
    <rect x="138" y="284" width="204" height="14" rx="3" fill="#0C5C5B"/>
  </g>

  <!-- sector chips -->
  <g>
    <circle cx="372" cy="84" r="34" fill="#0C5C5B"/>
    <rect x="356" y="74" width="32" height="20" rx="4" fill="#5BD8CB"/>
    <path d="M364 74 v-6 h16 v6" fill="none" stroke="#5BD8CB" stroke-width="4"/>
    <circle cx="96" cy="206" r="22" fill="#34C7B8"/>
    <path d="M96 196 v20 M86 206 h20" stroke="#07302F" stroke-width="5" stroke-linecap="round"/>
  </g>
</svg>
