<svg width="480" height="360" viewBox="0 0 480 360" fill="none" xmlns="http://www.w3.org/2000/svg" role="img" aria-label="Software solutions: application window with code">
  <defs>
    <linearGradient id="m2" x1="0" y1="0" x2="1" y2="1"><stop stop-color="#14857F"/><stop offset="1" stop-color="#0C5C5B"/></linearGradient>
  </defs>
  <rect width="480" height="360" rx="24" fill="#EAF4F3"/>
  <circle cx="96" cy="300" r="110" fill="#DBEDEB"/>

  <!-- main window -->
  <rect x="92" y="78" width="296" height="204" rx="16" fill="#0E2120"/>
  <rect x="92" y="78" width="296" height="40" rx="16" fill="#0C5C5B"/>
  <rect x="92" y="104" width="296" height="14" fill="#0C5C5B"/>
  <circle cx="116" cy="98" r="6" fill="#5BD8CB"/><circle cx="138" cy="98" r="6" fill="#34C7B8"/><circle cx="160" cy="98" r="6" fill="#9CD9D3"/>

  <!-- code lines -->
  <rect x="118" y="140" width="40" height="10" rx="5" fill="#5BD8CB"/>
  <rect x="166" y="140" width="92" height="10" rx="5" fill="#3DA39C"/>
  <rect x="138" y="164" width="120" height="10" rx="5" fill="#3DA39C"/>
  <rect x="138" y="188" width="74" height="10" rx="5" fill="#5BD8CB"/>
  <rect x="220" y="188" width="48" height="10" rx="5" fill="#3DA39C"/>
  <rect x="118" y="212" width="60" height="10" rx="5" fill="#3DA39C"/>
  <rect x="118" y="236" width="150" height="10" rx="5" fill="#235e5b"/>

  <!-- floating brackets badge -->
  <rect x="288" y="166" width="92" height="92" rx="20" fill="url(#m2)"/>
  <path d="M326 196 l-14 16 14 16" fill="none" stroke="#fff" stroke-width="6" stroke-linecap="round" stroke-linejoin="round"/>
  <path d="M348 196 l14 16 -14 16" fill="none" stroke="#fff" stroke-width="6" stroke-linecap="round" stroke-linejoin="round"/>
</svg>
